HIERARCHY
ROOT pelvis
{
  OFFSET 0 100 0
  CHANNELS 6 Xposition Yposition Zposition Zrotation Xrotation Yrotation
  JOINT pelvis_right_femur
  {
    OFFSET -10.78128 -3.44521 -0.5502486
    CHANNELS 3 Zrotation Xrotation Yrotation
    JOINT right_femur_tibia
    {
      OFFSET -0.8047443 -44.0398 -0.1307829
      CHANNELS 3 Zrotation Xrotation Yrotation
      JOINT right_tibia_foot
      {
        OFFSET 3.006224 -47.83518 -5
        CHANNELS 3 Zrotation Xrotation Yrotation
        End Site
        {
          OFFSET 0 -5 15
        }
      }
    }
  }
  JOINT pelvis_left_femur
  {
    OFFSET 10.78128 -3.44521 -0.5502486
    CHANNELS 3 Zrotation Xrotation Yrotation
    JOINT left_femur_tibia
    {
      OFFSET 0.8047443 -44.0398 -0.1307829
      CHANNELS 3 Zrotation Xrotation Yrotation
      JOINT left_tibia_foot
      {
        OFFSET -4.370144 -48.10324 -4.275266
        CHANNELS 3 Zrotation Xrotation Yrotation
        End Site
        {
          OFFSET 0 -5 15
        }
      }
    }
  }
  JOINT pelvis_spine1
  {
    OFFSET 0 6.468898 -3.129235
    CHANNELS 3 Zrotation Xrotation Yrotation
    JOINT spine1
    {
      OFFSET 0 23.15396 4.99043
      CHANNELS 3 Zrotation Xrotation Yrotation
      JOINT spine2
      {
        OFFSET 0 20.79997 -5.064912
        CHANNELS 3 Zrotation Xrotation Yrotation
        JOINT neck
        {
          OFFSET 0 14.38658 9.616178
          CHANNELS 3 Zrotation Xrotation Yrotation
          End Site
          {
            OFFSET 0 20 0
          }
        }
      }
      JOINT right_manubrium
      {
        OFFSET -5.722621 16.35077 3.967754
        CHANNELS 3 Zrotation Xrotation Yrotation
        JOINT right_clavicle
        {
          OFFSET -13.16364 1.694482 -4.693211
          CHANNELS 3 Zrotation Xrotation Yrotation
          JOINT right_humerus
          {
            OFFSET -28.5034 -0.3100689 -2.792744
            CHANNELS 3 Zrotation Xrotation Yrotation
            JOINT right_radius
            {
              OFFSET -25.15693 0.02248979 -1.271978
              CHANNELS 3 Zrotation Xrotation Yrotation
              End Site
              {
                OFFSET -15 0 0
              }
            }
          }
        }
      }
      JOINT left_manubrium
      {
        OFFSET 5.722621 16.35077 3.967754
        CHANNELS 3 Zrotation Xrotation Yrotation
        JOINT left_clavicle
        {
          OFFSET 13.16364 1.694482 -4.693211
          CHANNELS 3 Zrotation Xrotation Yrotation
          JOINT left_humerus
          {
            OFFSET 29.39168 -1.063119 -2.237045
            CHANNELS 3 Zrotation Xrotation Yrotation
            JOINT left_radius
            {
              OFFSET 24.59957 -0.9528479 0.9047498
              CHANNELS 3 Zrotation Xrotation Yrotation
              End Site
              {
                OFFSET 15 -0 -0
              }
            }
          }
        }
      }
    }
  }
}
MOTION
Frames: 9
Frame Time: 0.0416666666667
0 103.5113 0 2.014708 -2.557821 0.3668407 1.816042 -12.9358 7.447722 -0 36.38898 -0 -4.970945 -16.77329 -3.640662 -7.798036 13.16864 -25.52082 -0 4.020182 -0 -1.945691 -20.4039 23.64784 -3.247119 -3.086216 4.624117 0.4467627 8.329729 -6.78604 0.9621149 23.23397 8.415734 5.029716 -20.78169 8.483064 6.222458 -19.12905 10.86857 87.98318 36.10622 -22.86 -0 0 16.095 -6.46157 7.190684 2.940932 5.717488 -19.89991 -4.074324 -99.66173 43.16942 27.43149 0 0 -25.85315 -10.2899 15.08036 27.45716
0.1963846 103.2583 1.289046 1.74024 -2.17364 0.6326625 2.276482 -14.82543 7.349584 -0 35.8236 -0 -5.288642 -15.68673 -3.631382 -7.494466 13.26172 -25.20002 -0 3.912285 -0 -2.075418 -20.95848 23.25245 -3.078296 -2.829176 4.510941 0.4671388 8.256937 -6.866326 1.020002 23.12819 8.460076 5.103518 -21.0354 8.553582 6.202659 -19.00472 10.83835 88.16074 36.44075 -22.99362 -0 0 15.9177 -6.683837 7.586988 2.991906 5.86887 -20.14868 -3.970056 -99.46967 43.09306 27.20153 0 0 -26.15118 -10.10694 15.40957 27.44724
0.3653723 102.9777 2.682091 1.450505 -1.811758 0.8767645 2.659115 -16.48271 7.028933 -0 35.1773 -0 -5.588046 -15.07869 -3.815692 -7.064162 13.63227 -24.75355 -0 4.037283 -0 -2.015913 -21.49239 22.43631 -3.204329 -2.611506 4.053711 0.9519594 7.967093 -7.157892 0.9337317 23.10493 8.379672 4.900233 -21.56573 8.549357 6.219349 -18.71024 10.89706 87.87001 36.37631 -22.763 -0 0 15.6048 -7.149744 7.845901 3.544552 5.670122 -19.98877 -3.697374 -99.01044 42.3033 26.64784 0 0 -25.03964 -10.07836 15.79173 27.00547
0.4962598 102.67 4.237819 0.97986 -1.233323 1.120055 3.284927 -18.94922 6.78725 -0 34.07886 -0 -5.948685 -14.15761 -3.866394 -6.535411 14.00117 -24.29017 -0 4.302945 -0 -2.401423 -22.21953 21.41079 -3.026246 -2.315613 3.720742 1.266694 7.629625 -7.364748 0.9818251 23.01994 8.29181 4.762312 -22.19036 8.659355 6.105512 -18.45448 10.83811 87.81646 36.22335 -22.72639 -0 0 15.38913 -7.327695 8.083635 3.737956 5.681592 -19.99648 -3.379276 -98.82131 41.80553 26.36828 0 0 -24.47346 -9.846238 16.32797 26.73818
0.5923153 102.341 5.912331 0.5514881 -0.660156 1.407326 3.853316 -20.9761 6.75436 -0 32.88395 -0 -6.15552 -13.7248 -3.740531 -6.166863 14.29252 -24.22391 -0 4.620835 -0 -3.244259 -22.82759 20.57991 -2.602624 -2.126902 3.692986 1.253854 7.282967 -7.345152 1.187616 22.95892 8.199188 4.72385 -22.63696 8.887406 5.877046 -18.33901 10.6244 87.99401 35.94136 -22.90187 -0 0 15.46851 -6.887725 8.064633 3.303568 5.912663 -20.07121 -3.104252 -99.25838 42.04107 26.72725 0 0 -24.6497 -9.65046 16.89364 26.95124
0.6564155 102.0049 7.691417 0.1432076 -0.08308242 1.751548 4.383953 -22.73046 6.79228 -0 31.64545 -0 -6.283555 -13.56724 -3.542999 -5.869013 14.55968 -24.35786 -0 5.058186 -0 -4.317952 -23.36129 19.78253 -2.101855 -1.993083 3.774829 1.125539 6.88879 -7.22412 1.465382 22.92484 8.093283 4.709737 -23.01982 9.179597 5.606667 -18.24488 10.33824 88.21495 35.59426 -23.11766 -0 0 15.66516 -6.180807 7.934123 2.606949 6.214754 -20.11808 -2.817284 -99.98509 42.56112 27.36224 0 0 -25.01415 -9.487112 17.52473 27.33493
0.6919762 101.6723 9.599017 -0.276524 0.5040918 2.154492 4.910583 -24.4214 6.797126 -0 30.34921 -0 -6.391973 -13.4135 -3.347668 -5.564093 14.83134 -24.47262 -0 5.697313 -0 -5.443499 -23.84564 18.89058 -1.629645 -1.855139 3.818537 1.038704 6.45222 -7.107238 1.740835 22.89394 7.980825 4.677466 -23.42528 9.481347 5.34918 -18.09101 10.05359 88.35922 35.23184 -23.2614 -0 0 15.82359 -5.514262 7.823037 1.954374 6.486731 -20.10099 -2.497895 -100.6521 42.97123 27.91575 0 0 -25.2072 -9.288626 18.18113 27.59658
0.7032532 101.3412 11.72284 -0.7656326 1.134736 2.601236 5.504694 -26.44054 6.641024 -0 28.75441 -0 -6.551306 -12.87942 -3.231101 -5.141706 15.18319 -24.26175 -0 6.681068 -0 -6.457443 -24.32513 17.70353 -1.278783 -1.625057 3.645724 1.180403 5.988229 -7.130922 1.919825 22.80887 7.881824 4.595393 -23.9621 9.715124 5.168086 -17.77947 9.857316 88.30105 34.90635 -23.23392 -0 0 15.74706 -5.24904 7.896517 1.711742 6.63079 -20.00266 -2.138442 -100.7556 42.7896 27.87741 0 0 -24.87796 -8.942641 18.75156 27.37345
0.7012776 100.9905 14.25008 -1.38456 1.845142 3.059032 6.22541 -29.1826 6.174968 -0 26.38656 -0 -6.807086 -11.45101 -3.247939 -4.503377 15.68769 -23.30294 -0 8.316179 -0 -7.220871 -24.77799 15.98484 -1.114709 -1.207347 3.088004 1.739803 5.562774 -7.450499 1.889579 22.56303 7.833242 4.453079 -24.73909 9.772267 5.128311 -17.22317 9.852827 87.92831 34.63148 -22.9681 -0 0 15.19583 -5.804385 8.318747 2.296207 6.558953 -19.84662 -1.771377 -99.67793 41.40534 26.63661 0 0 -23.7661 -8.226818 18.97089 26.1841
